<mxfile host="app.diagrams.net" modified="2024-04-16T20:17:37.412Z" agent="Mozilla/5.0 (Windows NT 10.0; Win64; x64) AppleWebKit/537.36 (KHTML, like Gecko) Chrome/123.0.0.0 Safari/537.36" version="24.2.5" etag="k6pJIHT7MwAcfgfD0Yk3" type="github">
  <diagram name="Page-1" id="KsHo9x543CYAQDlAN1KA">
    <mxGraphModel>
      <root>
        <mxCell id="0" />
        <mxCell id="1" parent="0" />
      </root>
    </mxGraphModel>
  </diagram>
</mxfile>
